<svg xmlns="http://www.w3.org/2000/svg" width="32" height="32" viewBox="0 0 32 32" fill="none"><path fill="#fff" d="M16.4 0h-.8C6.984 0 0 6.984 0 15.6s6.984 15.6 15.6 15.6h.8c8.616 0 15.6-6.984 15.6-15.6S25.016 0 16.4 0Z"/><path fill="#253238" d="M9.105 9.026h7.841a.9.9 0 0 1 .9.9l.01.377h3.064c.331 0 .64.169.817.448l2.633 4.14c.16.253.246.548.245.848v4.01a.894.894 0 0 1-.897.903h-1.114a2.428 2.428 0 0 1-2.327 1.737 2.399 2.399 0 0 1-2.327-1.737h-2.91a2.426 2.426 0 0 1-2.326 1.737 2.398 2.398 0 0 1-2.327-1.737H9.102a.896.896 0 0 1-.897-.897V9.919a.9.9 0 0 1 .9-.893ZM20.277 20.98a1.024 1.024 0 0 0 1.003-1.002 1.002 1.002 0 0 0-1.003-1.003 1.023 1.023 0 0 0-1.002 1.003 1.01 1.01 0 0 0 1.002 1.002Zm-1.573-6.064c0 .123.1.222.222.222h3.551a.223.223 0 0 0 .187-.334l-1.864-2.94a.223.223 0 0 0-.187-.103h-1.689c-.122 0-.222.1-.222.222l.002 2.933Zm-5.99 6.057a1.002 1.002 0 1 0 0-2.005 1.018 1.018 0 0 0-1.003 1.003 1.003 1.003 0 0 0 1.002 1.002Z"/></svg>